<svg xmlns="http://www.w3.org/2000/svg" viewBox="0 0 32 32" fill="none">
  <defs>
    <linearGradient id="gradient" x1="0%" y1="0%" x2="100%" y2="100%">
      <stop offset="0%" style="stop-color:#3b82f6;stop-opacity:1" />
      <stop offset="100%" style="stop-color:#1d4ed8;stop-opacity:1" />
    </linearGradient>
  </defs>
  
  <!-- Fondo circular -->
  <circle cx="16" cy="16" r="15" fill="url(#gradient)"/>
  
  <!-- Tijera simplificada para favicon -->
  <!-- Hoja superior -->
  <path d="M7 11 L15 16 L11 7 C10 6 8 6 7 7 C6 8 6 10 7 11 Z" fill="white"/>
  
  <!-- Hoja inferior -->
  <path d="M7 21 L15 16 L11 25 C10 26 8 26 7 25 C6 24 6 22 7 21 Z" fill="white"/>
  
  <!-- Tornillo central -->
  <circle cx="15" cy="16" r="2" fill="white"/>
  <circle cx="15" cy="16" r="1" fill="#64748b"/>
  
  <!-- Puntas de las hojas -->
  <path d="M15 16 L25 12" stroke="white" stroke-width="2" stroke-linecap="round"/>
  <path d="M15 16 L25 20" stroke="white" stroke-width="2" stroke-linecap="round"/>
  
  <!-- Mangos -->
  <circle cx="7" cy="8" r="2.5" fill="white"/>
  <circle cx="7" cy="24" r="2.5" fill="white"/>
  <circle cx="7" cy="8" r="1.5" fill="#f8fafc"/>
  <circle cx="7" cy="24" r="1.5" fill="#f8fafc"/>
</svg>